<svg id="Germany" xmlns="http://www.w3.org/2000/svg" width="100" height="68" viewBox="0 16 100 68">
  <g id="country_germany">
    <rect fill="#db242a" y="16" width="100" height="68"/>
    <path fill="#e3e3e3" fill-rule="evenodd" d="M45,57V84H30V57H0V42H30V16H45V42h55V57H45ZM14,36H9V31H4V26H9V21h5v5h5v5H14v5Z"/>
    <path fill-rule="evenodd" d="M100,52H40V84H35V52H0V47H35V16h5V47h60v5ZM13,35H10V30H5V27h5V22h3v5h5v3H13v5Z"/>
    <circle fill="#e3e3e3" cx="37.5" cy="49.5" r="19.5"/>
    <path fill-rule="evenodd" d="M37.5,66A16.5,16.5,0,1,1,54,49.5,16.5,16.5,0,0,1,37.5,66Zm0-31A14.5,14.5,0,1,0,52,49.5,14.5,14.5,0,0,0,37.5,35ZM43,55v5H42V54h6v1H43Zm-3,5H35V52H27V47h8V39h5v8h8v5H40v8Zm2-15V39h1v5h5v1H42ZM27,45V44h5V39h1v6H27Zm6,9v6H32V55H27V54h6Z"/>
    <path fill-rule="evenodd" d="M57,54h43v1H57V54Zm0-10h43v1H57V44ZM0,54H18v1H0V54ZM0,44H18v1H0V44ZM32,69h1V84H32V69Zm10,0h1V84H42V69ZM32,16h1V30H32V16Zm10,0h1V30H42V16Z"/>
  </g>
</svg>
