<svg xmlns="http://www.w3.org/2000/svg" width="48" height="48" viewBox="0 0 48 48" fill="none">
<rect width="48" height="48" fill="url(#paint0_radial)"/>
<g filter="url(#filter0_d)">
<path fill-rule="evenodd" clip-rule="evenodd" d="M15.8986 37.6899C16.8291 34.1595 21.6261 31.114 20.7278 28.4337L19.7277 25.0649C18.0434 24.6099 17.9687 29.458 15.5079 31.2928C16.1972 27.5014 15.3188 24.7964 14.4081 23.0835C15.6273 27.8843 14.5003 31.5466 13.6022 35.813C13.5026 26.4049 9.72312 22.3524 9.56138 18.5111C9.56138 23.1405 13.627 26.4049 11.9426 37.6899C11.6613 39.8926 11.134 39.756 11.1912 37.6899C11.1613 29.4357 5.05304 22.2579 5.03069 14.5433C4.74202 10.4609 6.51611 8.19589 9.25036 8.22831C12.2536 8.13128 12.8904 10.8015 13.4702 12.4399C15.386 13.6034 17.5109 14.2399 19.7701 14.5407C19.7003 12.2734 21.1932 10.4087 21.1558 7.99707C19.561 7.1293 18.4688 7.27354 17.7199 8.09403C17.384 6.67442 18.2647 5.62766 20.2577 5.33669C20.1134 3.03198 26.1917 4.01903 26.3162 5.94833C26.5575 8.49666 27.8638 11.1073 28.2096 14.5433C30.4762 14.2448 32.6084 13.606 34.5317 12.4399C35.1115 10.8015 35.7485 8.13128 38.7491 8.22831C41.4835 8.19589 43.26 10.4609 42.9689 14.5433C42.9465 22.2579 36.8381 29.4357 36.8084 37.6899C36.8681 39.756 36.3381 39.8926 36.057 37.6899C34.3726 26.4049 38.4381 23.1405 38.4381 18.5111C38.2764 22.3524 34.497 26.4049 34.3975 35.813C33.4942 30.9274 32.3473 28.5381 33.5913 23.0835C32.6805 24.7964 31.8372 27.4914 32.494 31.2928C30.0532 29.5823 30.1081 24.7889 28.242 25.0649L27.274 28.4488C26.2639 31.1737 31.3221 34.413 32.1058 37.6899C31.1555 38.1574 30.2822 38.6621 29.4636 39.2016C29.0555 36.1039 27.6398 33.5105 25.8633 31.0964C27.4308 33.4384 28.533 36.1833 28.7122 39.7161C27.9061 40.293 27.1521 40.9022 26.4381 41.5461C26.6098 37.2374 26.0599 34.4529 25.005 32.7499C26.254 35.7383 26.142 39.0424 25.4454 42.4809C24.9478 42.9708 24.465 43.478 23.9898 44C23.7983 43.7912 23.343 43.2689 23.1489 43.0626C24.1242 39.7659 24.8134 36.7824 24.1789 33.4833C24.4178 36.9219 22.7085 42.66 22.5567 42.5107C21.9097 39.1618 21.6436 35.8552 22.9971 32.7474C21.7629 34.8905 21.4221 37.9785 21.5789 41.5884C20.8523 40.932 20.0935 40.3129 19.2848 39.7336C19.3893 36.4468 20.4867 33.64 22.1388 31.094C20.3871 33.4881 18.9615 36.0665 18.5384 39.2165C17.7148 38.6695 16.8416 38.1622 15.8986 37.6899Z" fill="#D9A648"/>
<path fill-rule="evenodd" clip-rule="evenodd" d="M15.8986 37.6899C16.8291 34.1595 21.6261 31.114 20.7278 28.4337L19.7277 25.0649C18.0434 24.6099 17.9687 29.458 15.5079 31.2928C16.1972 27.5014 15.3188 24.7964 14.4081 23.0835C15.6273 27.8843 14.5003 31.5466 13.6022 35.813C13.5026 26.4049 9.72312 22.3524 9.56138 18.5111C9.56138 23.1405 13.627 26.4049 11.9426 37.6899C11.6613 39.8926 11.134 39.756 11.1912 37.6899C11.1613 29.4357 5.05304 22.2579 5.03069 14.5433C4.74202 10.4609 6.51611 8.19589 9.25036 8.22831C12.2536 8.13128 12.8904 10.8015 13.4702 12.4399C15.386 13.6034 17.5109 14.2399 19.7701 14.5407C19.7003 12.2734 21.1932 10.4087 21.1558 7.99707C19.561 7.1293 18.4688 7.27354 17.7199 8.09403C17.384 6.67442 18.2647 5.62766 20.2577 5.33669C20.1134 3.03198 26.1917 4.01903 26.3162 5.94833C26.5575 8.49666 27.8638 11.1073 28.2096 14.5433C30.4762 14.2448 32.6084 13.606 34.5317 12.4399C35.1115 10.8015 35.7485 8.13128 38.7491 8.22831C41.4835 8.19589 43.26 10.4609 42.9689 14.5433C42.9465 22.2579 36.8381 29.4357 36.8084 37.6899C36.8681 39.756 36.3381 39.8926 36.057 37.6899C34.3726 26.4049 38.4381 23.1405 38.4381 18.5111C38.2764 22.3524 34.497 26.4049 34.3975 35.813C33.4942 30.9274 32.3473 28.5381 33.5913 23.0835C32.6805 24.7964 31.8372 27.4914 32.494 31.2928C30.0532 29.5823 30.1081 24.7889 28.242 25.0649L27.274 28.4488C26.2639 31.1737 31.3221 34.413 32.1058 37.6899C31.1555 38.1574 30.2822 38.6621 29.4636 39.2016C29.0555 36.1039 27.6398 33.5105 25.8633 31.0964C27.4308 33.4384 28.533 36.1833 28.7122 39.7161C27.9061 40.293 27.1521 40.9022 26.4381 41.5461C26.6098 37.2374 26.0599 34.4529 25.005 32.7499C26.254 35.7383 26.142 39.0424 25.4454 42.4809C24.9478 42.9708 24.465 43.478 23.9898 44C23.7983 43.7912 23.343 43.2689 23.1489 43.0626C24.1242 39.7659 24.8134 36.7824 24.1789 33.4833C24.4178 36.9219 22.7085 42.66 22.5567 42.5107C21.9097 39.1618 21.6436 35.8552 22.9971 32.7474C21.7629 34.8905 21.4221 37.9785 21.5789 41.5884C20.8523 40.932 20.0935 40.3129 19.2848 39.7336C19.3893 36.4468 20.4867 33.64 22.1388 31.094C20.3871 33.4881 18.9615 36.0665 18.5384 39.2165C17.7148 38.6695 16.8416 38.1622 15.8986 37.6899Z" fill="url(#paint1_linear)"/>
</g>
<mask id="mask0" mask-type="alpha" maskUnits="userSpaceOnUse" x="5" y="4" width="38" height="40">
<path fill-rule="evenodd" clip-rule="evenodd" d="M15.8986 37.719C16.8291 34.2048 21.6261 31.1732 20.7278 28.5053L19.7277 25.152C18.0434 24.6991 17.9687 29.5248 15.5079 31.3512C16.1972 27.5772 15.3188 24.8847 14.4081 23.1796C15.6273 27.9583 14.5003 31.6039 13.6022 35.8506C13.5026 26.4858 9.72312 22.4519 9.56138 18.6283C9.56138 23.2364 13.627 26.4858 11.9426 37.719C11.6613 39.9115 11.134 39.7755 11.1912 37.719C11.1613 29.5027 5.05304 22.3579 5.03069 14.6787C4.74202 10.6151 6.51611 8.36049 9.25036 8.39276C12.2536 8.29617 12.8904 10.9541 13.4702 12.585C15.386 13.7432 17.5109 14.3767 19.7701 14.6761C19.7003 12.4192 21.1932 10.5631 21.1558 8.16258C19.561 7.2988 18.4688 7.44238 17.7199 8.2591C17.384 6.84601 18.2647 5.80406 20.2577 5.51444C20.1134 3.22032 26.1917 4.20283 26.3162 6.12326C26.5575 8.65987 27.8638 11.2585 28.2096 14.6787C30.4762 14.3816 32.6084 13.7457 34.5317 12.585C35.1115 10.9541 35.7485 8.29617 38.7491 8.39276C41.4835 8.36049 43.26 10.6151 42.9689 14.6787C42.9465 22.3579 36.8381 29.5027 36.8084 37.719C36.8681 39.7755 36.3381 39.9115 36.057 37.719C34.3726 26.4858 38.4381 23.2364 38.4381 18.6283C38.2764 22.4519 34.497 26.4858 34.3975 35.8506C33.4942 30.9875 32.3473 28.6092 33.5913 23.1796C32.6805 24.8847 31.8372 27.5673 32.494 31.3512C30.0532 29.6486 30.1081 24.8772 28.242 25.152L27.274 28.5203C26.2639 31.2326 31.3221 34.4571 32.1058 37.719C31.1555 38.1843 30.2822 38.6867 29.4636 39.2237C29.0555 36.1402 27.6398 33.5587 25.8633 31.1557C27.4308 33.4869 28.533 36.2192 28.7122 39.7358C27.9061 40.3101 27.1521 40.9164 26.4381 41.5574C26.6098 37.2685 26.0599 34.4967 25.005 32.8016C26.254 35.7762 26.142 39.0652 25.4454 42.4879C24.9478 42.9755 24.465 43.4804 23.9898 44C23.7983 43.7922 23.343 43.2723 23.1489 43.0669C24.1242 39.7854 24.8134 36.8156 24.1789 33.5316C24.4178 36.9544 22.7085 42.6662 22.5567 42.5175C21.9097 39.1841 21.6436 35.8926 22.9971 32.7991C21.7629 34.9324 21.4221 38.0062 21.5789 41.5995C20.8523 40.9461 20.0935 40.3299 19.2848 39.7532C19.3893 36.4816 20.4867 33.6876 22.1388 31.1533C20.3871 33.5364 18.9615 36.1029 18.5384 39.2385C17.7148 38.694 16.8416 38.1891 15.8986 37.719Z" fill="#D9A648"/>
</mask>
<g mask="url(#mask0)">
<g filter="url(#filter1_ii)">
<path fill-rule="evenodd" clip-rule="evenodd" d="M15.8986 37.719C16.8291 34.2048 21.6261 31.1732 20.7278 28.5053L19.7277 25.152C18.0434 24.6991 17.9687 29.5248 15.5079 31.3512C16.1972 27.5772 15.3188 24.8847 14.4081 23.1796C15.6273 27.9583 14.5003 31.6039 13.6022 35.8506C13.5026 26.4858 9.72312 22.4519 9.56138 18.6283C9.56138 23.2364 13.627 26.4858 11.9426 37.719C11.6613 39.9115 11.134 39.7755 11.1912 37.719C11.1613 29.5027 5.05304 22.3579 5.03069 14.6787C4.74202 10.6151 6.51611 8.36049 9.25036 8.39276C12.2536 8.29617 12.8904 10.9541 13.4702 12.585C15.386 13.7432 17.5109 14.3767 19.7701 14.6761C19.7003 12.4192 21.1932 10.5631 21.1558 8.16258C19.561 7.2988 18.4688 7.44238 17.7199 8.2591C17.384 6.84601 18.2647 5.80406 20.2577 5.51444C20.1134 3.22032 26.1917 4.20283 26.3162 6.12326C26.5575 8.65987 27.8638 11.2585 28.2096 14.6787C30.4762 14.3816 32.6084 13.7457 34.5317 12.585C35.1115 10.9541 35.7485 8.29617 38.7491 8.39276C41.4835 8.36049 43.26 10.6151 42.9689 14.6787C42.9465 22.3579 36.8381 29.5027 36.8084 37.719C36.8681 39.7755 36.3381 39.9115 36.057 37.719C34.3726 26.4858 38.4381 23.2364 38.4381 18.6283C38.2764 22.4519 34.497 26.4858 34.3975 35.8506C33.4942 30.9875 32.3473 28.6092 33.5913 23.1796C32.6805 24.8847 31.8372 27.5673 32.494 31.3512C30.0532 29.6486 30.1081 24.8772 28.242 25.152L27.274 28.5203C26.2639 31.2326 31.3221 34.4571 32.1058 37.719C31.1555 38.1843 30.2822 38.6867 29.4636 39.2237C29.0555 36.1402 27.6398 33.5587 25.8633 31.1557C27.4308 33.4869 28.533 36.2192 28.7122 39.7358C27.9061 40.3101 27.1521 40.9164 26.4381 41.5574C26.6098 37.2685 26.0599 34.4967 25.005 32.8016C26.254 35.7762 26.142 39.0652 25.4454 42.4879C24.9478 42.9755 24.465 43.4804 23.9898 44C23.7983 43.7922 23.343 43.2723 23.1489 43.0669C24.1242 39.7854 24.8134 36.8156 24.1789 33.5316C24.4178 36.9544 22.7085 42.6662 22.5567 42.5175C21.9097 39.1841 21.6436 35.8926 22.9971 32.7991C21.7629 34.9324 21.4221 38.0062 21.5789 41.5995C20.8523 40.9461 20.0935 40.3299 19.2848 39.7532C19.3893 36.4816 20.4867 33.6876 22.1388 31.1533C20.3871 33.5364 18.9615 36.1029 18.5384 39.2385C17.7148 38.694 16.8416 38.1891 15.8986 37.719Z" fill="url(#paint2_linear)"/>
<path fill-rule="evenodd" clip-rule="evenodd" d="M15.8986 37.719C16.8291 34.2048 21.6261 31.1732 20.7278 28.5053L19.7277 25.152C18.0434 24.6991 17.9687 29.5248 15.5079 31.3512C16.1972 27.5772 15.3188 24.8847 14.4081 23.1796C15.6273 27.9583 14.5003 31.6039 13.6022 35.8506C13.5026 26.4858 9.72312 22.4519 9.56138 18.6283C9.56138 23.2364 13.627 26.4858 11.9426 37.719C11.6613 39.9115 11.134 39.7755 11.1912 37.719C11.1613 29.5027 5.05304 22.3579 5.03069 14.6787C4.74202 10.6151 6.51611 8.36049 9.25036 8.39276C12.2536 8.29617 12.8904 10.9541 13.4702 12.585C15.386 13.7432 17.5109 14.3767 19.7701 14.6761C19.7003 12.4192 21.1932 10.5631 21.1558 8.16258C19.561 7.2988 18.4688 7.44238 17.7199 8.2591C17.384 6.84601 18.2647 5.80406 20.2577 5.51444C20.1134 3.22032 26.1917 4.20283 26.3162 6.12326C26.5575 8.65987 27.8638 11.2585 28.2096 14.6787C30.4762 14.3816 32.6084 13.7457 34.5317 12.585C35.1115 10.9541 35.7485 8.29617 38.7491 8.39276C41.4835 8.36049 43.26 10.6151 42.9689 14.6787C42.9465 22.3579 36.8381 29.5027 36.8084 37.719C36.8681 39.7755 36.3381 39.9115 36.057 37.719C34.3726 26.4858 38.4381 23.2364 38.4381 18.6283C38.2764 22.4519 34.497 26.4858 34.3975 35.8506C33.4942 30.9875 32.3473 28.6092 33.5913 23.1796C32.6805 24.8847 31.8372 27.5673 32.494 31.3512C30.0532 29.6486 30.1081 24.8772 28.242 25.152L27.274 28.5203C26.2639 31.2326 31.3221 34.4571 32.1058 37.719C31.1555 38.1843 30.2822 38.6867 29.4636 39.2237C29.0555 36.1402 27.6398 33.5587 25.8633 31.1557C27.4308 33.4869 28.533 36.2192 28.7122 39.7358C27.9061 40.3101 27.1521 40.9164 26.4381 41.5574C26.6098 37.2685 26.0599 34.4967 25.005 32.8016C26.254 35.7762 26.142 39.0652 25.4454 42.4879C24.9478 42.9755 24.465 43.4804 23.9898 44C23.7983 43.7922 23.343 43.2723 23.1489 43.0669C24.1242 39.7854 24.8134 36.8156 24.1789 33.5316C24.4178 36.9544 22.7085 42.6662 22.5567 42.5175C21.9097 39.1841 21.6436 35.8926 22.9971 32.7991C21.7629 34.9324 21.4221 38.0062 21.5789 41.5995C20.8523 40.9461 20.0935 40.3299 19.2848 39.7532C19.3893 36.4816 20.4867 33.6876 22.1388 31.1533C20.3871 33.5364 18.9615 36.1029 18.5384 39.2385C17.7148 38.694 16.8416 38.1891 15.8986 37.719Z" fill="url(#paint3_radial)"/>
</g>
<g style="mix-blend-mode:color-dodge">
<rect x="10" y="1" width="33" height="33" fill="url(#paint4_radial)"/>
</g>
</g>
<defs>
<filter id="filter0_d" x="3" y="2" width="42" height="44" filterUnits="userSpaceOnUse" color-interpolation-filters="sRGB">
<feFlood flood-opacity="0" result="BackgroundImageFix"/>
<feColorMatrix in="SourceAlpha" type="matrix" values="0 0 0 0 0 0 0 0 0 0 0 0 0 0 0 0 0 0 127 0"/>
<feOffset/>
<feGaussianBlur stdDeviation="1"/>
<feColorMatrix type="matrix" values="0 0 0 0 0.1 0 0 0 0 0.024 0 0 0 0 0 0 0 0 1 0"/>
<feBlend mode="normal" in2="BackgroundImageFix" result="effect1_dropShadow"/>
<feBlend mode="normal" in="SourceGraphic" in2="effect1_dropShadow" result="shape"/>
</filter>
<filter id="filter1_ii" x="5" y="4.18389" width="38" height="39.8161" filterUnits="userSpaceOnUse" color-interpolation-filters="sRGB">
<feFlood flood-opacity="0" result="BackgroundImageFix"/>
<feBlend mode="normal" in="SourceGraphic" in2="BackgroundImageFix" result="shape"/>
<feColorMatrix in="SourceAlpha" type="matrix" values="0 0 0 0 0 0 0 0 0 0 0 0 0 0 0 0 0 0 127 0" result="hardAlpha"/>
<feOffset dy="1"/>
<feComposite in2="hardAlpha" operator="arithmetic" k2="-1" k3="1"/>
<feColorMatrix type="matrix" values="0 0 0 0 1 0 0 0 0 0.9615 0 0 0 0 0.8625 0 0 0 1 0"/>
<feBlend mode="normal" in2="shape" result="effect1_innerShadow"/>
<feColorMatrix in="SourceAlpha" type="matrix" values="0 0 0 0 0 0 0 0 0 0 0 0 0 0 0 0 0 0 127 0" result="hardAlpha"/>
<feOffset dy="-1"/>
<feComposite in2="hardAlpha" operator="arithmetic" k2="-1" k3="1"/>
<feColorMatrix type="matrix" values="0 0 0 0 0.1625 0 0 0 0 0.0585 0 0 0 0 0 0 0 0 0.32 0"/>
<feBlend mode="normal" in2="effect1_innerShadow" result="effect2_innerShadow"/>
</filter>
<radialGradient id="paint0_radial" cx="0" cy="0" r="1" gradientUnits="userSpaceOnUse" gradientTransform="translate(24 24) rotate(90) scale(24)">
<stop stop-color="#290404"/>
<stop offset="0.505208" stop-color="#290404" stop-opacity="0.21"/>
<stop offset="1" stop-color="#290404" stop-opacity="0"/>
</radialGradient>
<linearGradient id="paint1_linear" x1="24" y1="4" x2="24" y2="44" gradientUnits="userSpaceOnUse">
<stop stop-color="#FFDC73"/>
<stop offset="1" stop-color="#885614"/>
</linearGradient>
<linearGradient id="paint2_linear" x1="7.03812" y1="6.65954" x2="31.6139" y2="44.2583" gradientUnits="userSpaceOnUse">
<stop stop-color="#FFC93F"/>
<stop offset="0.348958" stop-color="#FFD875"/>
<stop offset="0.786458" stop-color="#885614"/>
<stop offset="1" stop-color="#E39E41"/>
</linearGradient>
<radialGradient id="paint3_radial" cx="0" cy="0" r="1" gradientUnits="userSpaceOnUse" gradientTransform="translate(28.8545 14.54) rotate(99.3573) scale(29.8573 28.4662)">
<stop stop-color="#FFE194" stop-opacity="0.65"/>
<stop offset="1" stop-color="#FA5F4A" stop-opacity="0"/>
</radialGradient>
<radialGradient id="paint4_radial" cx="0" cy="0" r="1" gradientUnits="userSpaceOnUse" gradientTransform="translate(26.5 17.5) rotate(90) scale(16.5)">
<stop stop-color="#FFA979"/>
<stop offset="1" stop-color="#C75300" stop-opacity="0"/>
</radialGradient>
</defs>
<script xmlns=""/></svg>